<svg width="34" height="34" viewBox="0 0 34 34" fill="none" xmlns="http://www.w3.org/2000/svg">
<path d="M33.2366 28.7655L25.1044 20.6325C26.3722 18.5516 27.0409 16.161 27.0369 13.7242C27.0369 6.37032 20.665 1.74024e-07 13.3118 1.74024e-07C11.5636 -0.00028253 9.83248 0.343879 8.21729 1.01283C6.60209 1.68177 5.13449 2.6624 3.89832 3.89869C2.66214 5.13498 1.68161 6.60272 1.01273 8.21807C0.343846 9.83342 -0.000282503 11.5647 1.74008e-07 13.3131C1.74008e-07 20.6648 6.37187 27.0373 13.7229 27.0373C16.0791 27.0394 18.3932 26.4123 20.4261 25.2209L28.6013 33.4012C28.9858 33.7846 29.5066 34 30.0496 34C30.5925 34 31.1134 33.7846 31.4978 33.4012L33.5271 31.3717C34.3254 30.5732 34.0349 29.5639 33.2366 28.7655ZM4.09728 13.3131C4.09699 12.1027 4.33513 10.9042 4.79808 9.78586C5.26102 8.66754 5.93972 7.65138 6.7954 6.79542C7.65108 5.93946 8.66698 5.26046 9.78508 4.7972C10.9032 4.33395 12.1016 4.09552 13.3118 4.09552C18.4033 4.09552 22.9396 8.63007 22.9396 13.7242C22.939 16.1687 21.9678 18.5129 20.2394 20.2414C18.5111 21.9699 16.1671 22.9412 13.7229 22.9418C8.63139 22.9396 4.09728 18.4029 4.09728 13.3131Z" fill="white"/>
</svg>
